<svg width="20" height="19" viewBox="0 0 28 27" fill="none" xmlns="http://www.w3.org/2000/svg">
<path className='StarIcon' d="M15.1416 0.847438L18.2136 7.02044C18.3252 7.24132 18.4887 7.4319 18.69 7.5759C18.8913 7.71991 19.1245 7.81307 19.3696 7.84744L26.2696 8.84744C26.6733 8.90385 27.0384 9.11732 27.2856 9.44144C27.4066 9.60006 27.4947 9.78134 27.5445 9.97457C27.5943 10.1678 27.6049 10.3691 27.5756 10.5664C27.527 10.8977 27.3714 11.2039 27.1326 11.4384L22.1326 16.2844C21.953 16.4509 21.8183 16.6599 21.7409 16.8922C21.6634 17.1245 21.6458 17.3725 21.6896 17.6134L22.9206 24.4264C22.9838 24.8215 22.8906 25.2256 22.6608 25.5531C22.431 25.8806 22.0826 26.1056 21.6896 26.1804C21.3529 26.2336 21.008 26.1786 20.7046 26.0234L14.5506 22.8174C14.3253 22.7038 14.0764 22.6446 13.8241 22.6446C13.5717 22.6446 13.3229 22.7038 13.0976 22.8174L6.94257 26.0284C6.57935 26.2217 6.15498 26.2653 5.76003 26.1501C5.36508 26.0348 5.03082 25.7697 4.82857 25.4114C4.67316 25.1152 4.61707 24.7769 4.66857 24.4464L5.89857 17.6314C5.94216 17.3903 5.92454 17.1421 5.84732 16.9096C5.7701 16.677 5.63574 16.4676 5.45657 16.3004L0.456568 11.4564C0.171811 11.1807 0.00776356 10.8035 0.000268523 10.4072C-0.00722651 10.0109 0.142441 9.62773 0.416568 9.34144L0.456568 9.30144C0.69376 9.05979 1.00632 8.90633 1.34257 8.86644L8.24257 7.86044C8.4876 7.82583 8.72065 7.73257 8.92191 7.58859C9.12317 7.44461 9.28669 7.25416 9.39857 7.03344L12.3596 0.847438C12.4888 0.587355 12.6896 0.369525 12.9382 0.219502C13.1869 0.0694795 13.4732 -0.00651375 13.7636 0.000437587H13.9486C14.2022 0.0312732 14.4441 0.124754 14.6526 0.272448C14.861 0.420142 15.0294 0.617403 15.1426 0.846438" fill="#0000FF" fill-opacity="0.5"/>
<path className='StarIcon1' d="M13.7835 22.6514C13.5167 22.6596 13.2556 22.7309 13.0215 22.8594L6.89853 26.0594C6.53689 26.2308 6.12412 26.2605 5.74166 26.1426C5.3592 26.0247 5.03483 25.7677 4.83253 25.4224C4.6765 25.1293 4.62032 24.7933 4.67253 24.4654L5.89553 17.6654C5.93634 17.4222 5.91743 17.1727 5.84043 16.9384C5.76344 16.7041 5.63066 16.492 5.45353 16.3204L0.453526 11.4784C0.168048 11.1991 0.0049867 10.8181 0.000112481 10.4188C-0.00476173 10.0194 0.14895 9.6345 0.427526 9.34838L0.450526 9.32638C0.687042 9.09112 0.992586 8.93764 1.32253 8.88838L8.22853 7.87238C8.47448 7.84097 8.70875 7.74883 8.91021 7.60428C9.11167 7.45973 9.27399 7.26732 9.38253 7.04438L12.3825 0.780379C12.522 0.531099 12.7287 0.326002 12.979 0.188452C13.2294 0.0509028 13.5133 -0.0135697 13.7985 0.00237948C13.7875 0.412379 13.7875 22.3704 13.7875 22.6494" fill="#0000FF" fill-opacity="0.5"/>
</svg>
